<svg width="116.075px" height="524px" xmlns="http://www.w3.org/2000/svg" viewBox="191.9625 -187 116.075 524" style="background: rgba(0, 0, 0, 0);" preserveAspectRatio="xMidYMid"><defs><filter id="editing-extrude-glow"><feFlood flood-color="none" result="flood-1"></feFlood><feMorphology operator="erode" radius="1" in="SourceAlpha" result="erode"></feMorphology><feComposite operator="in" in="flood-1" in2="erode" result="comp1"></feComposite><feConvolveMatrix order="0,0" divisor="1" in="comp1" result="convolve" kernelMatrix=""></feConvolveMatrix><feOffset dx="0" dy="0" in="convolve" result="extrude"></feOffset><feComposite operator="in" in="flood-1" in2="extrude" result="comp-extrude"></feComposite><feFlood flood-color="rgba(0%,0%,0%,0)" result="flood-2"></feFlood><feComposite operator="in" in="flood-2" in2="SourceAlpha" result="comp2"></feComposite><feMorphology operator="dilate" radius="1" in="comp2" result="dilate"></feMorphology><feOffset dx="0" dy="0" in="dilate" result="offset"></feOffset><feGaussianBlur in="offset" stdDeviation="5.8" result="blur"></feGaussianBlur><feComponentTransfer in="blur" result="shadow"><feFuncA type="linear" slope="0.8" intercept="-0.2"></feFuncA></feComponentTransfer><feMerge><feMergeNode in="shadow"></feMergeNode><feMergeNode in="comp-extrude"></feMergeNode><feMergeNode in="SourceGraphic"></feMergeNode></feMerge></filter></defs><g filter="url(#editing-extrude-glow)"><g transform="translate(214.41500282287598, 121.43999481201172)"><path d="M58.36-56.41L67.08-56.41L67.08-64.06L47.15-64.06L47.15-64.06Q41.46-65.66 35.05-65.66L35.05-65.66L35.05-65.66Q20.46-65.66 14.50-58.81L14.50-58.81L14.50-58.81Q8.54-51.96 8.54-41.81L8.54-41.81L8.54-41.81Q8.54-31.67 14.23-25.44L14.23-25.44L10.68-22.06L10.68-22.06Q5.34-16.90 5.34-10.85L5.34-10.85L5.34-10.85Q5.34-2.49 13.35-0.53L13.35-0.53L13.35-0.53Q9.61 0.53 6.85 3.91L6.85 3.91L6.85 3.91Q4.09 7.30 4.09 10.85L4.09 10.85L4.09 10.85Q4.09 27.22 33.63 27.22L33.63 27.22L33.63 27.22Q66.01 27.22 66.01 8.19L66.01 8.19L66.01 8.19Q66.01 0.18 60.32-4.89L60.32-4.89L60.32-4.89Q54.63-9.96 44.66-9.96L44.66-9.96L20.46-9.96L20.46-9.96Q16.73-9.96 16.73-12.63L16.73-12.63L16.73-12.63Q16.73-14.59 19.40-16.73L19.40-16.73L22.95-20.11L22.95-20.11Q27.94-18.51 35.05-18.51L35.05-18.51L35.05-18.51Q50.18-18.51 56.23-25.36L56.23-25.36L56.23-25.36Q62.28-32.21 62.28-41.55L62.28-41.55L62.28-41.55Q62.28-50.89 58.36-56.41L58.36-56.41ZM27.40-42.17L27.40-42.17L27.40-42.17Q27.40-49.64 29.00-52.85L29.00-52.85L29.00-52.85Q30.60-56.05 35.23-56.05L35.23-56.05L35.23-56.05Q39.86-56.05 41.64-52.85L41.64-52.85L41.64-52.85Q43.42-49.64 43.42-42.08L43.42-42.08L43.42-42.08Q43.42-34.52 41.64-31.32L41.64-31.32L41.64-31.32Q39.86-28.11 35.23-28.11L35.23-28.11L35.23-28.11Q30.60-28.11 29.00-31.41L29.00-31.41L29.00-31.41Q27.40-34.70 27.40-42.17ZM25.98 0L38.43 0L38.43 0Q43.42 0 46.17 2.40L46.17 2.40L46.17 2.40Q48.93 4.80 48.93 8.90L48.93 8.90L48.93 8.90Q48.93 17.26 33.63 17.26L33.63 17.26L33.63 17.26Q21.17 17.26 21.17 9.96L21.17 9.96L21.17 9.96Q21.17 4.45 25.98 0L25.98 0Z" fill="#ffd700"></path></g></g><style>text {
  font-size: 64px;
  font-family: Arial Black;
  dominant-baseline: central;
  text-anchor: middle;
}</style></svg>